<svg id="data" xmlns="http://www.w3.org/2000/svg" width="27.934" height="34.502" viewBox="0 0 27.934 34.502">
  <g id="Grupo_14" data-name="Grupo 14">
    <ellipse id="Elipse_7" data-name="Elipse 7" cx="12.269" cy="4.813" rx="12.269" ry="4.813" transform="translate(0)" fill="#a28676"/>
    <path id="Caminho_27" data-name="Caminho 27" d="M13.317,22.489a2,2,0,0,1-1.467-1.566q-.513.022-1.037.023C4.84,20.946,0,18.793,0,16.133v3.68c0,2.659,4.84,4.813,10.813,4.813a23.637,23.637,0,0,0,2.493-.134A1.985,1.985,0,0,1,13.317,22.489Z" transform="translate(0 8.689)" fill="#a28676"/>
    <path id="Caminho_28" data-name="Caminho 28" d="M10.813,19.626c.338,0,.67-.009,1-.022v-.552a2,2,0,0,1,1.514-1.939,2,2,0,0,1-.262-1.271c-.727.068-1.479.1-2.252.1C4.84,15.947,0,13.794,0,11.134v3.68C0,17.472,4.84,19.626,10.813,19.626Z" transform="translate(0 5.997)" fill="#a28676"/>
    <path id="Caminho_29" data-name="Caminho 29" d="M12.269,14.626a30.166,30.166,0,0,0,3.487-.2l.917-.808a2.426,2.426,0,0,1,1.605-.586,2.5,2.5,0,0,1,1.144.273,2.239,2.239,0,0,1,2.194-1.492h1.7c.031,0,.061.006.091.007a2.716,2.716,0,0,0,1.128-2.007V6.133c0,2.659-5.492,4.813-12.269,4.813S0,8.792,0,6.133v3.68C0,12.472,5.491,14.626,12.269,14.626Z" transform="translate(0 3.303)" fill="#a28676"/>
  </g>
  <g id="Grupo_15" data-name="Grupo 15" transform="translate(15.934 22.502)">
    <path id="Caminho_30" data-name="Caminho 30" d="M25.813,20.551v-1.5l-1.785-.292a4.348,4.348,0,0,0-.49-1.185l1.04-1.482-1.061-1.061-1.464,1.053a4.279,4.279,0,0,0-1.19-.495l-.312-1.776h-1.5l-.289,1.771a4.32,4.32,0,0,0-1.194.489l-1.46-1.042-1.061,1.061,1.027,1.468a4.293,4.293,0,0,0-.5,1.2l-1.763.293v1.5l1.762.312a4.24,4.24,0,0,0,.5,1.2l-1.041,1.455,1.061,1.062,1.47-1.029a4.334,4.334,0,0,0,1.194.492l.294,1.771h1.5l.315-1.776a4.327,4.327,0,0,0,1.188-.5l1.481,1.039,1.06-1.062L23.538,22.05a4.289,4.289,0,0,0,.489-1.187Zm-6,1.354A2.092,2.092,0,1,1,21.9,19.813,2.092,2.092,0,0,1,19.813,21.905Z" transform="translate(-13.813 -13.813)" fill="#a28676"/>
  </g>
</svg>
