<svg xmlns="http://www.w3.org/2000/svg" width="987.935" height="646.497" viewBox="0 0 987.935 646.497">
  <g id="girl" transform="translate(0 0)">
    <ellipse id="Elipse_2" data-name="Elipse 2" cx="190.055" cy="9.697" rx="190.055" ry="9.697" transform="translate(0 627.103)" fill="#e6e6e6"/>
    <path id="Caminho_2" data-name="Caminho 2" d="M848.116,518.77,816.6,522.856l-1.605.207L773.056,528.5l-191.449,24.83c-8.187-5.66-15.914-11.482-23.087-17.442L777.611,522.94l37.9-2.243,1.59-.092Z" transform="translate(-106.035 -126.751)" fill="#e6e6e6"/>
    <path id="Caminho_4" data-name="Caminho 4" d="M1093.97,500.367q-4.712,7.776-10.138,15.222L939.205,496.834l-79.568-10.322,78.271,4.631Z" transform="translate(-106.035 -126.751)" fill="#e6e6e6"/>
    <path id="Caminho_5" data-name="Caminho 5" d="M1026.03,572.187c-53.231,38.125-124.359,61.4-202.491,61.4-63.909,0-137.364-21.889-197.87-53.709,4.785-12.4,11.451-22.457,20.722-27.549.23-.131.469-.261.707-.376a29.3,29.3,0,0,1,12.78-3.233c54.531-1.536,48.386,59.907,116.742-24.577C819.13,471.6,867.286,453.524,900.2,459.369c.607.108,1.206.223,1.8.346,19.078,3.963,32.726,16.175,36.666,34.477,10.753,49.923-20.737,89.861,36.866,77.572A119.14,119.14,0,0,1,1026.03,572.187Z" transform="translate(-106.035 -126.751)" fill="#fb9f85"/>
    <path id="Caminho_6" data-name="Caminho 6" d="M864.545,631.554c-26.789-14.934-43.466-35.323-49.568-60.6-4.531-18.767-3.229-39.886,3.869-62.77a168.118,168.118,0,0,1,23.378-47.223c54.253-76.793,59.149-126.832,53.7-155.287-5.971-31.2-25.369-44.158-25.565-44.285l.837-1.288c.2.13,20.11,13.389,26.224,45.222,3.525,18.352,1.866,39.278-4.929,62.2-8.457,28.523-24.949,60.259-49.017,94.328a166.59,166.59,0,0,0-23.166,46.79c-11.642,37.532-13.289,89.09,44.98,121.574Z" transform="translate(-106.035 -126.751)" fill="#3f3d56"/>
    <path id="Caminho_7" data-name="Caminho 7" d="M817.154,486.286c-21.12-11.773-20.531-30.431-16.319-44.009a59.668,59.668,0,0,1,8.3-16.763c19.006-26.9,20.724-44.38,18.818-54.3-2.07-10.776-8.711-15.2-8.777-15.244l.837-1.288c.3.192,7.257,4.83,9.449,16.242,2.854,14.86-3.562,33.526-19.072,55.479a58.123,58.123,0,0,0-8.086,16.331c-4.044,13.036-4.62,30.942,15.6,42.214Z" transform="translate(-106.035 -126.751)" fill="#3f3d56"/>
    <path id="Caminho_8" data-name="Caminho 8" d="M912.173,321.926l-.748-1.342c20.22-11.272,19.644-29.178,15.6-42.213a58.128,58.128,0,0,0-8.086-16.331c-15.509-21.953-21.926-40.619-19.072-55.479,2.192-11.412,9.154-16.05,9.449-16.242l.838,1.287c-.067.044-6.741,4.526-8.79,15.305-1.885,9.918-.148,27.38,18.83,54.243a59.671,59.671,0,0,1,8.3,16.762C932.7,291.495,933.292,310.153,912.173,321.926Z" transform="translate(-106.035 -126.751)" fill="#3f3d56"/>
    <path id="Caminho_9" data-name="Caminho 9" d="M957.265,245.5a23.041,23.041,0,0,1-38.6-25.169l.007-.01c6.953-10.658,41.959-22.146,41.959-22.146S964.218,234.847,957.265,245.5Z" transform="translate(-106.035 -126.751)" fill="#fb9f85"/>
    <path id="Caminho_10" data-name="Caminho 10" d="M948.816,174.077a23.041,23.041,0,0,1-38.6-25.169l.007-.01c6.953-10.658,41.959-22.146,41.959-22.146S955.769,163.419,948.816,174.077Z" transform="translate(-106.035 -126.751)" fill="#fb9f85"/>
    <path id="Caminho_11" data-name="Caminho 11" d="M947.723,390.292c-1.475-.346-36.259-8.433-47.856-2.911a23.81,23.81,0,0,0,10.276,45.307,23.423,23.423,0,0,0,5.146-.568,23.88,23.88,0,0,0,5.054-1.744c11.6-5.53,27.235-37.634,27.9-39l.422-.86Zm-28.041,38.694a22.272,22.272,0,0,1-19.155-40.215c2.7-1.29,6.836-1.774,11.551-1.774,12.9,0,30.153,3.648,34.347,4.578-2.619,5.253-16.651,32.6-26.743,37.411Z" transform="translate(-106.035 -126.751)" fill="#3f3d56"/>
    <path id="Caminho_12" data-name="Caminho 12" d="M843.045,259.812a23.714,23.714,0,0,1-16.031-6.2c-9.493-8.656-15.128-43.921-15.364-45.419l-.148-.947.956.061c1.512.1,37.147,2.461,46.64,11.117h0a23.8,23.8,0,0,1-16.053,41.392Zm-29.719-50.906c.983,5.783,6.464,36.036,14.722,43.567a22.273,22.273,0,0,0,30.014-32.917h0c-8.258-7.53-38.888-10.2-44.737-10.65Z" transform="translate(-106.035 -126.751)" fill="#3f3d56"/>
    <path id="Caminho_13" data-name="Caminho 13" d="M810.962,314.992a23.041,23.041,0,0,1-31.049,34.052c-9.4-8.574-15.122-44.97-15.122-44.97S801.559,306.418,810.962,314.992Z" transform="translate(-106.035 -126.751)" fill="#fb9f85"/>
    <path id="Caminho_14" data-name="Caminho 14" d="M881.58,315.839a13.172,13.172,0,0,0-12.819-10.376,13.462,13.462,0,0,0-2.811.307c-6.866,1.49-19.07,16.444-19.585,17.074l-.607.745.86.43c.676.338,15.376,7.619,23.072,7.619a8.483,8.483,0,0,0,1.828-.177,13.146,13.146,0,0,0,10.061-15.622Zm-3.088,9.063a11.487,11.487,0,0,1-7.3,5.061c-5.515,1.2-19.385-5.169-23.01-6.9,2.581-3.072,12.581-14.6,18.1-15.8A11.608,11.608,0,0,1,878.493,324.9Z" transform="translate(-106.035 -126.751)" fill="#3f3d56"/>
    <path id="Caminho_15" data-name="Caminho 15" d="M285.6,505.814l40.141-40.141a10.629,10.629,0,0,1,17.728,4.566h0a10.629,10.629,0,0,1-2.7,10.466l-25.627,25.627,35.767,28.51-.018.027c.179-.009.355-.027.537-.027a10.885,10.885,0,1,1-10.883,10.935Z" transform="translate(-106.035 -126.751)" fill="#a0616a"/>
    <path id="Caminho_16" data-name="Caminho 16" d="M298.107,626.991l11.907-4.445L298.535,574.5l-17.574,6.56Z" fill="#a0616a"/>
    <path id="Caminho_17" data-name="Caminho 17" d="M401.758,743.82H441.7v15.433H416.645a14.887,14.887,0,0,1-14.887-14.887v-.547Z" transform="translate(973.64 1181.359) rotate(159.528)" fill="#2f2e41"/>
    <path id="Caminho_18" data-name="Caminho 18" d="M190.985,623.171H203.7l6.047-49.024H190.983Z" fill="#a0616a"/>
    <path id="Caminho_19" data-name="Caminho 19" d="M294.3,746.29h39.945v15.433H309.184A14.887,14.887,0,0,1,294.3,746.837v-.546Z" transform="translate(522.539 1381.248) rotate(179.997)" fill="#2f2e41"/>
    <path id="Caminho_20" data-name="Caminho 20" d="M329.139,520.328s31.1-5.184,41.468,7.257L414.668,731.3l-24.881,3.11s-8.294-105.744-49.762-133.736c0,0-30.065,93.3-24.881,135.809l-21.771-2.073S286.634,555.576,329.139,520.328Z" transform="translate(-106.035 -126.751)" fill="#2f2e41"/>
    <path id="Caminho_21" data-name="Caminho 21" d="M393.762,593.857l3.568-4.682-.585-.446,2.406-3.157a7.068,7.068,0,0,0-1.338-9.906h0l-8.654-6.595a7.068,7.068,0,0,0-9.906,1.337h0l-20.421,26.8a7.068,7.068,0,0,0,1.338,9.906h0l8.654,6.595a7.068,7.068,0,0,0,9.906-1.338h0l9.541-12.521.585.446,3.568-4.682-.585-.446,1.338-1.756Z" transform="translate(-106.035 -126.751)" fill="#e6e6e6"/>
    <circle id="Elipse_3" data-name="Elipse 3" cx="3.679" cy="3.679" r="3.679" transform="translate(277.081 450.717)" fill="#fff"/>
    <circle id="Elipse_4" data-name="Elipse 4" cx="24.561" cy="24.561" r="24.561" transform="translate(206.072 263.667)" fill="#a0616a"/>
    <path id="Caminho_22" data-name="Caminho 22" d="M312.551,461.236s22.808-26.954,41.468-5.184h0a74.113,74.113,0,0,1,17.809,50.432l-.7,23.693L328.1,523.439Z" transform="translate(-106.035 -126.751)" fill="#ccc"/>
    <path id="Caminho_23" data-name="Caminho 23" d="M345.147,454.315a11.16,11.16,0,0,0-10.835,13.144l23.539,130.272-.131.179a10.669,10.669,0,0,0,4.193,16.028h0a10.826,10.826,0,0,0,13.443-4,10.619,10.619,0,0,0-2.1-13.857l-.153-.13L356.365,464.07a11.154,11.154,0,0,0-11.069-9.756Z" transform="translate(-106.035 -126.751)" fill="#a0616a"/>
    <path id="Caminho_24" data-name="Caminho 24" d="M340.649,419.229,351.2,406.8c2.719-3.2,5.564-6.693,5.949-10.878.422-4.587-2.369-9.046-6.183-11.629s-8.5-3.555-13.091-3.911c-8.518-.661-17.482.746-24.484,5.641s-11.584,13.733-9.876,22.1c1.344,6.592,6.3,12.906,4.373,19.352-2.107,7.053-10.747,9.217-17.8,11.32-11.84,3.53-23.146,10.48-29.352,21.164s-6.178,25.417,2.094,34.595c5.356,5.943,13.434,8.948,21.422,9.4s15.938-1.429,23.514-4c6.977-2.37,13.878-5.418,19.371-10.329s9.449-11.94,9.278-19.306c-.163-7.02-3.924-13.414-5.468-20.264a33.255,33.255,0,0,1,10.4-31.73" transform="translate(-106.035 -126.751)" fill="#2f2e41"/>
    <path id="Caminho_25" data-name="Caminho 25" d="M323.881,378.635l6.647-1.3a4.263,4.263,0,0,1,5,3.363l9.192,30.843h0l-15.015,2.946h0l-9.192-30.843a4.263,4.263,0,0,1,3.363-5.005Z" transform="translate(-106.035 -126.751)" fill="#fb9f85"/>
    <circle id="Elipse_5" data-name="Elipse 5" cx="12.09" cy="12.09" r="12.09" transform="translate(220.382 278.107)" fill="#fff"/>
    <circle id="Elipse_6" data-name="Elipse 6" cx="6.717" cy="6.717" r="6.717" transform="translate(225.755 283.48)" fill="#fb9f85"/>
  </g>
</svg>
