<svg xmlns="http://www.w3.org/2000/svg" width="42" height="42" viewBox="0 0 42 42">
  <path id="icons-typescript" d="M5,4A1,1,0,0,0,4,5V45a1,1,0,0,0,1,1H45a1,1,0,0,0,1-1V5a1,1,0,0,0-1-1ZM6,6H44V44H6Zm9,17v3.445h5V42h4V26.445h5V23Zm21.691.01c-3.115-.012-6.674.931-6.674,5.314,0,5.73,7.721,5.731,7.721,8.316,0,.245.1,2.025-2.621,2.025a9.328,9.328,0,0,1-5-1.713v4.158S42,44.954,42,36.289c0-5.625-7.793-5.344-7.793-8.139,0-1.083.769-2.1,2.9-2.1a8.216,8.216,0,0,1,4.018,1.258l.141-3.705A19.858,19.858,0,0,0,36.691,23.01Z" transform="translate(-4 -4)" fill="#a28676"/>
</svg>
