<svg xmlns="http://www.w3.org/2000/svg" width="41.376" height="47.093" viewBox="0 0 41.376 47.093">
  <path id="icons-css" d="M6.229,4A2.386,2.386,0,0,0,4.016,6.732L8.052,43.468a3.989,3.989,0,0,0,2.672,3.427l12.946,4.042a3.415,3.415,0,0,0,2,.013l13.615-4.056a3.99,3.99,0,0,0,2.724-3.52L45.365,6.683A2.38,2.38,0,0,0,43.147,4Zm0,1.624H43.147a.779.779,0,0,1,.748.9l-.107,1.166a.734.734,0,0,0-.672-.45.78.78,0,0,0-.727.823V9.684a.828.828,0,0,0,.389.726.682.682,0,0,0,.765-.044L40.537,43.209s0,0,0,0A2.389,2.389,0,0,1,38.9,45.326h0L25.282,49.383a2.064,2.064,0,0,1-1.208-.008L11.127,45.332a2.392,2.392,0,0,1-1.609-2.06L5.911,10.434a.681.681,0,0,0,.708-.06.836.836,0,0,0,.334-.69V8.06a.856.856,0,0,0-.217-.586A.705.705,0,0,0,6.2,7.237a.725.725,0,0,0-.6.365L5.482,6.537s0,0,0,0A.78.78,0,0,1,6.229,5.624ZM9.895,7.237a.78.78,0,0,0-.727.823V9.684a.742.742,0,1,0,1.477,0V8.06a.856.856,0,0,0-.217-.586.705.705,0,0,0-.533-.237Zm3.691,0a.78.78,0,0,0-.727.823V9.684a.742.742,0,1,0,1.477,0V8.06a.856.856,0,0,0-.217-.586.705.705,0,0,0-.533-.237Zm3.691,0a.78.78,0,0,0-.727.823V9.684a.742.742,0,1,0,1.477,0V8.06a.856.856,0,0,0-.217-.586.705.705,0,0,0-.533-.237Zm3.691,0a.78.78,0,0,0-.727.823V9.684a.742.742,0,1,0,1.477,0V8.06a.856.856,0,0,0-.217-.586.705.705,0,0,0-.533-.237Zm3.691,0a.78.78,0,0,0-.727.823V9.684a.742.742,0,1,0,1.477,0V8.06a.856.856,0,0,0-.217-.586.705.705,0,0,0-.533-.237Zm3.691,0a.78.78,0,0,0-.727.823V9.684a.742.742,0,1,0,1.477,0V8.06a.856.856,0,0,0-.217-.586.705.705,0,0,0-.533-.237Zm3.691,0a.78.78,0,0,0-.727.823V9.684a.742.742,0,1,0,1.477,0V8.06a.856.856,0,0,0-.217-.586.705.705,0,0,0-.533-.237Zm3.691,0a.78.78,0,0,0-.727.823V9.684a.742.742,0,1,0,1.477,0V8.06a.856.856,0,0,0-.217-.586.705.705,0,0,0-.533-.237Zm3.691,0a.78.78,0,0,0-.727.823V9.684a.742.742,0,1,0,1.477,0V8.06a.856.856,0,0,0-.217-.586.705.705,0,0,0-.533-.237ZM13.6,13.743a1.6,1.6,0,0,0-1.458,1.876l.564,3.934a.764.764,0,0,0,.728.685H30.761l-.349,3.248H19.5a.778.778,0,0,0-.738.812V29.17a.778.778,0,0,0,.738.812h10.21l-.51,4.757-4.451,1.492-3.89-1.449-.258-1.8s0,0,0,0a1.535,1.535,0,0,0-1.458-1.37H16.157A1.6,1.6,0,0,0,14.7,33.482s0,0,0,0l.748,5.227a1.583,1.583,0,0,0,.979,1.277l7.791,2.9h0a1.32,1.32,0,0,0,.887.014l8.6-2.88a1.584,1.584,0,0,0,1.028-1.356l2.134-19.861.35-3.264a1.579,1.579,0,0,0-1.455-1.8Zm0,1.624H35.746L35.4,18.615,33.264,38.471l-8.582,2.877L16.9,38.45l-.747-5.219v0h2.989l.327,2.29a.8.8,0,0,0,.493.642L24.5,37.852a.675.675,0,0,0,.451.008l5.139-1.722a.8.8,0,0,0,.519-.682l.665-6.191a.866.866,0,0,0-.182-.635.711.711,0,0,0-.552-.272h-10.3V25.11H31.068a.767.767,0,0,0,.734-.717l.523-4.872a.866.866,0,0,0-.182-.635.711.711,0,0,0-.552-.272H14.063ZM32.059,43.184a.676.676,0,0,0-.2.032l-1.477.439a.776.776,0,0,0-.539.574.868.868,0,0,0,.2.8.692.692,0,0,0,.729.2l1.477-.439a.813.813,0,0,0,.548-.891.766.766,0,0,0-.737-.707Zm-11.1,1.034a.768.768,0,0,0-.723.709.814.814,0,0,0,.538.886l3.91,1.221,3.129-.933a.776.776,0,0,0,.539-.574.868.868,0,0,0-.2-.8.692.692,0,0,0-.729-.2L24.7,45.35l-3.517-1.1A.676.676,0,0,0,20.963,44.218Z" transform="translate(-4 -4)" fill="#a28676"/>
</svg>
