<svg xmlns="http://www.w3.org/2000/svg" width="41.074" height="46.01" viewBox="0 0 41.074 46.01">
  <path id="icons-html" d="M5.281,2a1,1,0,0,0-.812,1.094L8,42.531a1,1,0,0,0,.719.844l16,4.594a.986.986,0,0,0,.563,0l16-4.594A1,1,0,0,0,42,42.531L45.531,3.094a1,1,0,0,0-.258-.77A1.011,1.011,0,0,0,44.531,2H5.281ZM6.563,4H43.438L40.094,41.656,25,45.938,9.906,41.656Zm5.969,6.063a1,1,0,0,0-.812,1.094l1.344,14.781a1,1,0,0,0,.969.938H30l-.437,4.594-4.531.969-4.594-.969-.156-1.625a1,1,0,0,0-1-.937H14.406a1.011,1.011,0,0,0-.742.324,1,1,0,0,0-.258.77l.563,6.125a1,1,0,0,0,.688.875l9.938,3.031.125.031a.985.985,0,0,0,.563,0L35.344,37a1,1,0,0,0,.719-.875l1.313-15.031A1,1,0,0,0,36.406,20H19.375l-.25-3.094H36.844a1,1,0,0,0,1-.906l.438-4.844a1,1,0,0,0-.258-.77,1.011,1.011,0,0,0-.742-.324H12.719A.754.754,0,0,0,12.531,10.063Zm1.281,2H36.188l-.25,2.844H18.031a1.011,1.011,0,0,0-.742.324,1,1,0,0,0-.258.769l.469,5.094a1,1,0,0,0,.969.906H35.313L34.125,35.281,25,38.031l-9.125-2.75L15.5,30.906h2.875l.125,1.469a1,1,0,0,0,.781.906l5.563,1.156a1.017,1.017,0,0,0,.406,0l5.469-1.156a1,1,0,0,0,.781-.906l.594-6.437a1,1,0,0,0-1-1.062H14.938Z" transform="translate(-4.462 -2)" fill="#a28676"/>
</svg>
