<svg xmlns="http://www.w3.org/2000/svg" xmlns:xlink="http://www.w3.org/1999/xlink" width="46" height="46" viewBox="0 0 46 46">
  <defs>
    <clipPath id="clip-path">
      <path id="icons8-ionic" d="M25,2A23.023,23.023,0,1,0,45.893,15.4a7.521,7.521,0,0,1-4.078,3.23,18.059,18.059,0,1,1-9.262-9.947,7.538,7.538,0,0,1,3.508-3.842A22.845,22.845,0,0,0,25,2ZM39.5,6A5.5,5.5,0,1,0,45,11.5,5.5,5.5,0,0,0,39.5,6ZM25,15A10,10,0,1,0,35,25,10,10,0,0,0,25,15Z" transform="translate(67 30.126)" fill="#a28676"/>
    </clipPath>
  </defs>
  <g id="icons-ionic" transform="translate(-69 -32.126)" clip-path="url(#clip-path)">
    <g id="icons8-ionic-2" data-name="icons8-ionic" transform="translate(67 30.126)">
      <path id="Caminho_64" data-name="Caminho 64" d="M25,16a9,9,0,1,0,9,9,9,9,0,0,0-9-9Z" fill="none" stroke="#a28676" stroke-miterlimit="10" stroke-width="2"/>
      <path id="Caminho_65" data-name="Caminho 65" d="M42.161,19.567A18.054,18.054,0,1,1,31.638,8.28a8.545,8.545,0,0,1,2.439-3.319,21.972,21.972,0,1,0,11.56,12.4A8.51,8.51,0,0,1,42.161,19.567Z" fill="none" stroke="#a28676" stroke-linecap="round" stroke-linejoin="round" stroke-miterlimit="10" stroke-width="2"/>
      <path id="Caminho_66" data-name="Caminho 66" d="M39.5,7A4.5,4.5,0,1,0,44,11.5,4.5,4.5,0,0,0,39.5,7Z" fill="none" stroke="#a28676" stroke-miterlimit="10" stroke-width="2"/>
    </g>
  </g>
</svg>
