<svg xmlns="http://www.w3.org/2000/svg" width="42" height="42" viewBox="0 0 42 42">
  <path id="icons-javascript" d="M6.668,4A2.684,2.684,0,0,0,4,6.668V43.332A2.684,2.684,0,0,0,6.668,46H43.332A2.682,2.682,0,0,0,46,43.332V6.668A2.682,2.682,0,0,0,43.332,4Zm0,2H43.332A.665.665,0,0,1,44,6.668V43.332a.665.665,0,0,1-.668.668H6.668A.665.665,0,0,1,6,43.332V6.668A.665.665,0,0,1,6.668,6ZM23,23V35.574C23,37.5,22.27,38,21,38a3.284,3.284,0,0,1-2.859-1.9L15,38a7.021,7.021,0,0,0,6.234,4C24.656,42,27,40.18,27,36.184V23Zm12.453,0c-3.406,0-5.59,2.18-5.59,5.043,0,3.105,1.832,4.574,4.586,5.746l.953.41c1.738.762,2.6,1.227,2.6,2.535,0,1.09-.828,1.879-2.41,1.879-1.883,0-2.773-1.277-3.59-2.613l-3,2a6.966,6.966,0,0,0,6.676,4C39.3,42,42,40.117,42,36.684c0-3.187-1.828-4.606-5.074-6l-.953-.406c-1.637-.711-2.348-1.172-2.348-2.316a1.664,1.664,0,0,1,1.828-1.637,2.592,2.592,0,0,1,2.453,1.637l2.973-1.906A5.632,5.632,0,0,0,35.453,23Z" transform="translate(-4 -4)" fill="#a28676"/>
</svg>
