<svg xmlns="http://www.w3.org/2000/svg" width="39.27" height="46" viewBox="0 0 39.27 46">
  <path id="icon-java" d="M28.188,0c2.75,5.854-9.867,9.469-11.035,14.349-1.078,4.478,7.488,9.685,7.492,9.685A34.1,34.1,0,0,1,21.1,17.759C18.891,12.879,34.531,8.466,28.188,0Zm8.363,8.111S25.5,8.75,24.941,15.254c-.25,2.9,2.9,4.442,3,6.551.07,1.718-1.887,3.152-1.887,3.152s3.551-.615,4.664-3.241c1.23-2.914-2.387-4.905-2.023-7.238C29.043,12.247,36.551,8.107,36.551,8.107Zm2.68,15.025a6.186,6.186,0,0,0-3.605,1.075c2.281-.449,4.211.834,4.211,2.314,0,3.335-5.238,6.486-5.238,6.486s8.109-.852,8.109-6.328A3.378,3.378,0,0,0,39.23,23.132Zm-20.047.007S9.063,23.013,9.063,25.647c0,2.753,13.254,2.947,22.719,1.251,0,0,2.527-1.592,3.2-2.185-6.2,1.164-20.359,1.319-20.359.313C14.621,24.095,19.184,23.139,19.184,23.139Zm-2.445,5.125c-1.551,0-3.867,1.1-3.867,2.167,0,2.138,11.691,3.788,20.348.661l-3-1.689C24.355,31.131,13.539,30.578,16.738,28.263Zm1.441,4.783c-2.129,0-3.508,1.207-3.508,2.1,0,2.746,12.707,3.022,17.742.23l-3.2-1.872C25.453,34.965,16.008,35.163,18.18,33.046Zm-7.09,2.487c-3.469-.065-5.723,1.369-5.723,2.559,0,6.325,35.523,6.019,35.523-.446,0-1.071-1.375-1.581-1.871-1.826,2.9,6.181-29.051,5.7-29.051,2.056,0-.83,2.344-1.646,4.523-1.254l-1.848-.967A12.653,12.653,0,0,0,11.09,35.533Zm33.547,4.255c-5.4,4.708-19.09,6.425-32.855,3.518C25.543,48.484,44.566,45.57,44.637,39.788Z" transform="translate(-5.367 0.004)" fill="#a28676"/>
</svg>
