<svg xmlns="http://www.w3.org/2000/svg" width="45.682" height="43.739" viewBox="0 0 45.682 43.739">
  <path id="in" d="M13.713,45.739H4V16.6h9.713ZM8.859,12.713a4.857,4.857,0,1,1,4.855-4.859A4.858,4.858,0,0,1,8.859,12.713ZM48.682,45.739H39.343V31.558c0-3.382-.064-7.732-4.855-7.732-4.863,0-5.611,3.683-5.611,7.487V45.739H19.542V16.577h8.964v3.984h.126a9.876,9.876,0,0,1,8.841-4.709c9.461,0,11.209,6.04,11.209,13.892C48.682,29.745,48.682,45.739,48.682,45.739Z" transform="translate(-3.5 -2.5)" fill="#282c2e" stroke="#282c2e" stroke-width="1"/>
</svg>
